# xmcd
#
# Track frame offsets:
#	150
#	21736
#	34751
#	52354
#	74467
#	89185
#	104968
#	126541
#	145013
#	157608
#	174497
#	194691
#	214727
#	230190
#	244500
#
# Disc length: 3321 seconds
#
# Revision: 1
# Processed by: cddbd v1.5.2PL0 Copyright (c) Steve Scherf et al.
# Submitted via: EasyCDDAExtractor 11.1.0.1
#
DISCID=f20cf70f
DTITLE=Candye Kane - Superhero
DYEAR=2009
DGENRE=Blues
TTITLE0=Superhero
TTITLE1=Hey! Toughen Up!
TTITLE2=I Put A Hex On You
TTITLE3=I'm A Bad, Bad Girl
TTITLE4=Ik Hou Van Je (I Love You)
TTITLE5=Who's Been Sleeping In My Bed?
TTITLE6=Don't Cry For Me New Jersey
TTITLE7=You Need Love
TTITLE8=I Like 'Em Stacked Like That
TTITLE9=Till You Go Too Far
TTITLE10=Picture Of You
TTITLE11=You Can't Stop Me From Loving You
TTITLE12=I Didn't Listen To My Heart
TTITLE13=Throw It In The Trash Can Love
TTITLE14=I'm Gonna Be Just Fine
EXTD=
EXTT0=
EXTT1=
EXTT2=
EXTT3=
EXTT4=
EXTT5=
EXTT6=
EXTT7=
EXTT8=
EXTT9=
EXTT10=
EXTT11=
EXTT12=
EXTT13=
EXTT14=
PLAYORDER=
